<svg xmlns="http://www.w3.org/2000/svg" xmlns:xlink="http://www.w3.org/1999/xlink" width="794" zoomAndPan="magnify" viewBox="0 0 595.5 842.249979" height="1123" preserveAspectRatio="xMidYMid meet" version="1.0"><defs><g/><clipPath id="210731517a"><path d="M 0.015625 0 L 594.984375 0 L 594.984375 841.5 L 0.015625 841.5 Z M 0.015625 0 " clip-rule="nonzero"/></clipPath><clipPath id="0e62a2dbab"><path d="M 0.015625 0 L 594.984375 0 L 594.984375 841.5 L 0.015625 841.5 Z M 0.015625 0 " clip-rule="nonzero"/></clipPath><clipPath id="7a16c44868"><path d="M 59.886719 327.90625 L 544.878906 327.90625 L 544.878906 796.042969 L 59.886719 796.042969 Z M 59.886719 327.90625 " clip-rule="nonzero"/></clipPath><clipPath id="6a06a12c52"><rect x="0" width="595" y="0" height="842"/></clipPath></defs><g clip-path="url(#210731517a)"><path fill="#ffffff" d="M 0.015625 0 L 594.984375 0 L 594.984375 841.5 L 0.015625 841.5 Z M 0.015625 0 " fill-opacity="1" fill-rule="nonzero"/><g transform="matrix(1, 0, 0, 1, -0.000000000000000002, 0)"><g clip-path="url(#6a06a12c52)"><g clip-path="url(#0e62a2dbab)"><path fill="#ffdff4" d="M 0.015625 0 L 595.210938 0 L 595.210938 841.816406 L 0.015625 841.816406 Z M 0.015625 0 " fill-opacity="1" fill-rule="nonzero"/></g><g clip-path="url(#7a16c44868)"><path fill="#6443c4" d="M 536.722656 489.210938 C 525.203125 478.800781 505.585938 483.894531 495.453125 495.660156 C 485.320312 507.425781 482.179688 523.496094 479.414062 538.773438 C 476.804688 553.167969 474.191406 567.558594 471.578125 581.957031 C 470.058594 590.335938 468.527344 598.761719 465.703125 606.796875 C 455.941406 634.539062 432.128906 654.554688 409.339844 673.144531 C 405.386719 676.367188 401.433594 679.59375 397.480469 682.816406 C 393.246094 686.273438 387.144531 681.90625 389.070312 676.792969 C 394.691406 661.847656 399.488281 646.625 401.398438 630.816406 C 402.71875 619.941406 402.652344 608.90625 404.425781 598.09375 C 406.0625 588.121094 409.242188 578.472656 412.40625 568.871094 C 422.898438 537.054688 442 493.816406 455.613281 470.714844 C 464.222656 456.113281 472.199219 440.484375 472.546875 423.539062 C 472.894531 406.585938 465.964844 389.039062 452.328125 378.964844 C 449.308594 376.734375 445.925781 374.855469 442.222656 374.195312 C 431.238281 372.230469 421.402344 381.171875 414.96875 390.292969 C 391.167969 424.054688 387.253906 467.488281 384.121094 508.679688 C 381.519531 542.816406 378.921875 576.957031 376.320312 611.097656 C 375.960938 615.84375 369.300781 616.601562 367.894531 612.050781 C 359.65625 585.4375 352.878906 558.316406 353.332031 530.597656 C 353.722656 506.703125 359.535156 483.128906 368.105469 460.820312 C 372.929688 448.265625 378.664062 435.949219 381.386719 422.777344 C 384.589844 407.289062 383.488281 391.179688 380.503906 375.648438 C 377.808594 361.59375 372.117188 346.003906 357.125 342.464844 C 348.671875 340.464844 339.902344 343.191406 333.285156 348.8125 C 320.875 359.355469 317.671875 375.777344 317.59375 391.332031 C 317.53125 404.242188 319.359375 417.152344 318.480469 430.035156 C 317.125 450 309.375 468.898438 304.761719 488.371094 C 291.777344 543.105469 303.734375 597.417969 304.621094 652.828125 C 304.691406 657.363281 298.171875 658.15625 297.1875 653.726562 C 294.820312 643.070312 291.960938 632.523438 288.621094 622.128906 C 286.003906 613.988281 283.089844 605.945312 280.710938 597.730469 C 269.777344 559.984375 270.421875 519.882812 273.628906 480.714844 C 277.0625 438.75 283.34375 396.84375 281 354.722656 C 280.675781 348.875 279.199219 343.121094 276.46875 337.945312 C 274.699219 334.589844 272.207031 331.070312 268.648438 329.328125 C 265.160156 327.617188 261.003906 327.777344 257.230469 328.128906 C 250.433594 328.753906 243.800781 330.707031 237.898438 334.132812 C 210.539062 350.003906 207.425781 382.558594 207.902344 411.535156 C 208.460938 445.09375 212.253906 481.929688 218.460938 514.914062 C 211.960938 513.199219 204.921875 515.519531 199.488281 519.480469 C 194.054688 523.445312 189.929688 528.898438 185.882812 534.273438 C 182.355469 538.960938 178.71875 543.898438 177.765625 549.6875 C 176.90625 554.945312 178.367188 560.269531 179.8125 565.398438 C 188.578125 596.414062 197.554688 627.925781 214.773438 655.171875 C 222.960938 668.128906 232.898438 679.917969 241.117188 692.855469 C 245.925781 700.433594 250.90625 709.445312 254.285156 718.691406 C 255.386719 721.703125 251.355469 723.835938 249.484375 721.238281 C 239.617188 707.558594 225.007812 696.898438 210.691406 687.445312 C 190.925781 674.394531 169.726562 661.296875 158.347656 640.519531 C 153.582031 631.820312 150.808594 622.195312 148.074219 612.65625 C 140.449219 586.070312 136.355469 553.738281 121.546875 530.371094 C 114.609375 519.417969 101.210938 512.921875 88.316406 514.25 C 75.417969 515.582031 60.789062 528.03125 59.9375 540.972656 C 58.953125 555.886719 73.003906 566.804688 80.816406 579.550781 C 86.414062 588.683594 88.921875 599.304688 92.109375 609.53125 C 107.042969 657.363281 139.113281 699.648438 181.15625 726.921875 C 198.617188 738.25 217.941406 747.25 232.585938 762.046875 C 239.800781 769.34375 245.707031 777.894531 253.234375 784.859375 C 261.066406 792.109375 271.402344 796.019531 282.074219 796.042969 C 417.035156 796.316406 448.574219 729.019531 457.09375 718.652344 C 460.8125 714.125 464.46875 709.550781 467.722656 704.683594 C 473.121094 696.601562 478.519531 688.515625 483.921875 680.433594 C 490.929688 669.941406 498 659.328125 502.386719 647.496094 C 505.710938 638.535156 507.417969 629.066406 509.199219 619.675781 C 513.679688 596.066406 518.828125 572.265625 529.542969 550.753906 C 534.53125 540.746094 540.738281 531.183594 543.546875 520.359375 C 546.363281 509.539062 545.015625 496.710938 536.722656 489.210938 " fill-opacity="1" fill-rule="nonzero"/></g><g fill="#f60000" fill-opacity="1"><g transform="translate(36.653968, 263.528947)"><g><path d="M 53.109375 0 L 31.234375 -0.34375 L 13.1875 -1.734375 L 10.40625 -4.859375 L 6.9375 -23.609375 L 9.71875 -42.6875 L 7.28125 -61.78125 L 7.28125 -80.875 L 9.375 -100.3125 L 9.375 -119.40625 L 6.9375 -138.484375 L 8.671875 -157.578125 L 9.03125 -176.671875 L 11.453125 -195.765625 L 10.0625 -214.84375 L 7.984375 -234.640625 L 13.890625 -238.453125 L 31.234375 -240.53125 L 53.453125 -239.84375 L 56.234375 -233.59375 L 58.3125 -214.84375 L 59.359375 -195.765625 L 60.046875 -176.671875 L 55.875 -157.578125 L 57.96875 -138.484375 L 57.96875 -119.40625 L 58.65625 -99.96875 L 56.234375 -80.875 L 58.3125 -61.78125 L 59 -42.6875 L 55.1875 -23.609375 L 60.046875 -4.515625 Z M 53.109375 0 "/></g></g></g><g fill="#f60000" fill-opacity="1"><g transform="translate(103.643033, 263.528947)"><g><path d="M 14.234375 0 L 8.671875 -6.25 L 11.796875 -24.984375 L 10.765625 -44.421875 L 8.328125 -63.515625 L 12.5 -82.609375 L 8.328125 -101.34375 L 11.453125 -120.78125 L 7.28125 -139.53125 L 8.671875 -159.3125 L 7.28125 -178.0625 L 6.9375 -197.5 L 10.40625 -216.59375 L 9.375 -235.671875 L 14.578125 -237.40625 L 32.28125 -243.65625 L 50.671875 -242.96875 L 69.078125 -243.65625 L 87.8125 -240.53125 L 102.390625 -233.9375 L 115.234375 -223.875 L 119.40625 -207.90625 L 118.015625 -186.734375 L 120.78125 -165.21875 L 119.40625 -143.703125 L 116.96875 -127.03125 L 106.90625 -111.421875 L 119.40625 -96.84375 L 120.4375 -79.140625 L 119.75 -56.578125 L 120.4375 -33.671875 L 115.921875 -17.359375 L 104.46875 -4.171875 L 87.8125 -1.734375 L 69.078125 -4.515625 L 50.671875 -1.734375 L 32.28125 -1.390625 Z M 53.109375 -155.15625 L 55.1875 -134.328125 L 58.3125 -133.984375 L 69.765625 -133.984375 L 76.703125 -141.96875 L 74.96875 -155.84375 L 74.28125 -172.859375 L 74.625 -189.859375 L 69.765625 -196.109375 L 57.625 -196.453125 L 54.84375 -191.9375 L 54.5 -173.890625 Z M 54.84375 -67.6875 L 57.265625 -49.984375 L 57.265625 -43.390625 L 71.84375 -44.078125 L 76.359375 -49.28125 L 76.703125 -67.6875 L 75.3125 -84.34375 L 69.765625 -88.859375 L 57.625 -89.203125 L 55.875 -86.078125 Z M 54.84375 -67.6875 "/></g></g></g><g fill="#f60000" fill-opacity="1"><g transform="translate(231.373506, 263.528947)"><g><path d="M 53.109375 0 L 31.234375 -0.34375 L 13.1875 -1.734375 L 10.40625 -4.859375 L 6.9375 -23.609375 L 9.71875 -42.6875 L 7.28125 -61.78125 L 7.28125 -80.875 L 9.375 -100.3125 L 9.375 -119.40625 L 6.9375 -138.484375 L 8.671875 -157.578125 L 9.03125 -176.671875 L 11.453125 -195.765625 L 10.0625 -214.84375 L 7.984375 -234.640625 L 13.890625 -238.453125 L 31.234375 -240.53125 L 53.453125 -239.84375 L 56.234375 -233.59375 L 58.3125 -214.84375 L 59.359375 -195.765625 L 60.046875 -176.671875 L 55.875 -157.578125 L 57.96875 -138.484375 L 57.96875 -119.40625 L 58.65625 -99.96875 L 56.234375 -80.875 L 58.3125 -61.78125 L 59 -42.6875 L 55.1875 -23.609375 L 60.046875 -4.515625 Z M 53.109375 0 "/></g></g></g><g fill="#f60000" fill-opacity="1"><g transform="translate(298.362583, 263.528947)"><g><path d="M 113.84375 1.390625 L 95.109375 0 L 74.96875 -1.734375 L 54.84375 -0.34375 L 34.359375 -0.34375 L 11.796875 -0.6875 L 9.71875 -4.859375 L 8.671875 -22.5625 L 8.328125 -39.921875 L 9.71875 -46.15625 L 14.921875 -58.3125 L 21.859375 -72.203125 L 29.84375 -94.75 L 32.96875 -108.640625 L 41.296875 -127.734375 L 48.59375 -152.375 L 54.84375 -162.4375 L 59.359375 -179.09375 L 66.640625 -195.40625 L 49.640625 -194.03125 L 31.9375 -196.109375 L 9.03125 -196.796875 L 6.9375 -202.703125 L 6.9375 -219.359375 L 8.671875 -237.0625 L 12.5 -242.96875 L 34.359375 -242.265625 L 54.84375 -242.625 L 74.96875 -241.578125 L 95.109375 -242.96875 L 110.71875 -242.265625 L 117.3125 -242.265625 L 122.53125 -237.0625 L 122.53125 -221.09375 L 118.359375 -203.75 L 114.890625 -194.03125 L 111.765625 -185.34375 L 105.859375 -167.640625 L 100.3125 -155.5 L 95.109375 -133.28125 L 81.921875 -104.828125 L 76.703125 -83.65625 L 66.640625 -63.171875 L 63.859375 -49.640625 L 79.828125 -49.640625 L 100.65625 -48.9375 L 120.09375 -48.9375 L 124.265625 -46.15625 L 124.265625 -24.640625 L 122.53125 -0.34375 Z M 113.84375 1.390625 "/></g></g></g><g fill="#f60000" fill-opacity="1"><g transform="translate(429.563991, 263.528947)"><g><path d="M 14.234375 -0.34375 L 13.1875 -6.9375 L 8.671875 -24.984375 L 9.03125 -43.390625 L 6.9375 -61.78125 L 9.375 -80.171875 L 12.84375 -98.578125 L 10.40625 -116.625 L 8.671875 -135.359375 L 10.40625 -153.421875 L 10.765625 -171.8125 L 9.03125 -190.203125 L 9.03125 -208.609375 L 12.84375 -233.25 L 23.953125 -239.84375 L 42 -241.578125 L 64.90625 -241.234375 L 88.15625 -239.140625 L 104.46875 -237.40625 L 115.234375 -224.5625 L 121.828125 -208.953125 L 120.09375 -190.203125 L 121.828125 -171.8125 L 117.671875 -153.765625 L 117.3125 -135.359375 L 118.359375 -116.625 L 120.4375 -98.578125 L 118.703125 -80.171875 L 121.140625 -61.78125 L 121.828125 -24.984375 L 119.046875 -6.59375 L 115.234375 -6.25 L 96.84375 -3.125 L 78.796875 -2.421875 L 75.671875 -6.9375 L 74.625 -26.71875 L 73.234375 -46.859375 L 73.9375 -66.984375 L 71.84375 -86.78125 L 71.84375 -87.46875 L 57.96875 -89.546875 L 56.234375 -87.125 L 56.921875 -66.984375 L 54.140625 -47.203125 L 52.0625 -26.71875 L 55.875 -6.9375 L 50.671875 -2.078125 L 32.96875 -3.46875 Z M 53.796875 -137.453125 L 57.96875 -132.9375 L 71.84375 -138.140625 L 75.671875 -137.796875 L 75.3125 -155.15625 L 73.234375 -172.5 L 73.578125 -190.546875 L 69.765625 -197.15625 L 60.046875 -195.40625 L 55.1875 -190.546875 L 55.1875 -172.5 L 54.5 -155.15625 Z M 53.796875 -137.453125 "/></g></g></g><g fill="#ffffff" fill-opacity="1"><g transform="translate(46.344154, 384.689557)"><g><path d="M 30.890625 0 L 14.15625 -0.28125 L 5.78125 -0.28125 L 3.46875 -2.171875 L 3.46875 -10.828125 L 3.609375 -19.34375 L 3.46875 -20.640625 L 7.796875 -27.4375 L 11.109375 -34.9375 L 14.4375 -42.15625 L 19.921875 -50.09375 L 22.671875 -56.3125 L 26.5625 -63.234375 L 30.46875 -70.3125 L 30.171875 -71.328125 L 30.171875 -79.84375 L 28.875 -83.296875 L 24.6875 -82.4375 L 24.25 -79.84375 L 22.671875 -73.203125 L 21.21875 -68.71875 L 13.28125 -69.296875 L 5.625 -70.75 L 2.890625 -72.1875 L 3.75 -81.140625 L 4.625 -89.796875 L 7.65625 -97.59375 L 15.453125 -100.921875 L 22.953125 -102.21875 L 30.609375 -102.796875 L 38.109375 -101.5 L 47.203125 -97.59375 L 50.390625 -89.953125 L 49.953125 -82 L 50.09375 -74.203125 L 49.375 -68 L 49.375 -67.140625 L 46.640625 -59.046875 L 41.71875 -50.8125 L 37.96875 -43.3125 L 34.21875 -35.515625 L 29.734375 -28.15625 L 26.5625 -20.359375 L 33.203125 -19.921875 L 40.5625 -20.796875 L 47.78125 -20.0625 L 50.671875 -18.046875 L 50.53125 -10.109375 L 50.671875 -2.171875 L 47.640625 -1.4375 L 39.421875 -0.28125 Z M 30.890625 0 "/></g></g></g><g fill="#ffffff" fill-opacity="1"><g transform="translate(99.905882, 384.689557)"><g><path d="M 23.96875 0 L 15.875 -0.71875 L 6.5 -3.46875 L 3.328125 -12.5625 L 4.765625 -20.21875 L 4.1875 -27.859375 L 3.171875 -35.65625 L 4.625 -43.171875 L 3.03125 -50.8125 L 3.609375 -58.328125 L 3.890625 -66.265625 L 2.890625 -73.921875 L 4.765625 -81.578125 L 3.75 -89.078125 L 6.78125 -97.453125 L 15.734375 -100.78125 L 23.96875 -100.203125 L 32.203125 -101.34375 L 43.890625 -99.90625 L 49.09375 -97.453125 L 53.703125 -89.375 L 52.40625 -81.578125 L 51.109375 -73.921875 L 51.6875 -66.265625 L 52.703125 -58.46875 L 52.84375 -50.8125 L 52.703125 -43.171875 L 53.859375 -35.65625 L 52.984375 -27.859375 L 51.25 -20.21875 L 52.703125 -12.421875 L 47.5 -4.046875 L 39.984375 -1.15625 L 32.203125 0 Z M 21.9375 -63.09375 L 23.390625 -54.859375 L 24.40625 -46.78125 L 23.828125 -38.546875 L 24.25 -30.46875 L 24.40625 -22.234375 L 25.703125 -18.90625 L 30.171875 -19.484375 L 31.765625 -22.375 L 32.34375 -30.3125 L 32.203125 -38.546875 L 31.90625 -46.640625 L 32.765625 -55 L 32.34375 -63.234375 L 32.921875 -71.46875 L 32.203125 -79.40625 L 29.890625 -80.84375 L 25.984375 -80.84375 L 24.109375 -79.6875 L 23.53125 -71.328125 Z M 21.9375 -63.09375 "/></g></g></g><g fill="#ffffff" fill-opacity="1"><g transform="translate(156.643775, 384.689557)"><g><path d="M 30.890625 0 L 14.15625 -0.28125 L 5.78125 -0.28125 L 3.46875 -2.171875 L 3.46875 -10.828125 L 3.609375 -19.34375 L 3.46875 -20.640625 L 7.796875 -27.4375 L 11.109375 -34.9375 L 14.4375 -42.15625 L 19.921875 -50.09375 L 22.671875 -56.3125 L 26.5625 -63.234375 L 30.46875 -70.3125 L 30.171875 -71.328125 L 30.171875 -79.84375 L 28.875 -83.296875 L 24.6875 -82.4375 L 24.25 -79.84375 L 22.671875 -73.203125 L 21.21875 -68.71875 L 13.28125 -69.296875 L 5.625 -70.75 L 2.890625 -72.1875 L 3.75 -81.140625 L 4.625 -89.796875 L 7.65625 -97.59375 L 15.453125 -100.921875 L 22.953125 -102.21875 L 30.609375 -102.796875 L 38.109375 -101.5 L 47.203125 -97.59375 L 50.390625 -89.953125 L 49.953125 -82 L 50.09375 -74.203125 L 49.375 -68 L 49.375 -67.140625 L 46.640625 -59.046875 L 41.71875 -50.8125 L 37.96875 -43.3125 L 34.21875 -35.515625 L 29.734375 -28.15625 L 26.5625 -20.359375 L 33.203125 -19.921875 L 40.5625 -20.796875 L 47.78125 -20.0625 L 50.671875 -18.046875 L 50.53125 -10.109375 L 50.671875 -2.171875 L 47.640625 -1.4375 L 39.421875 -0.28125 Z M 30.890625 0 "/></g></g></g><g fill="#ffffff" fill-opacity="1"><g transform="translate(210.205503, 384.689557)"><g><path d="M 30.03125 1.015625 L 22.953125 0.71875 L 15.15625 0 L 7.078125 -2.890625 L 3.890625 -10.828125 L 4.328125 -19.78125 L 3.75 -28.296875 L 5.78125 -31.046875 L 13.140625 -31.46875 L 18.484375 -31.46875 L 22.515625 -30.46875 L 22.953125 -21.9375 L 24.546875 -19.78125 L 28.734375 -20.21875 L 30.171875 -22.09375 L 30.46875 -29.59375 L 30.3125 -37.390625 L 28.734375 -41.296875 L 20.5 -42.15625 L 18.046875 -42.875 L 16.75 -50.8125 L 17.46875 -57.609375 L 18.484375 -59.1875 L 26.859375 -59.921875 L 30.609375 -64.109375 L 30.171875 -72.1875 L 30.171875 -79.6875 L 28.734375 -82 L 24.40625 -82.4375 L 21.65625 -79.84375 L 21.796875 -71.90625 L 20.796875 -69.59375 L 13.140625 -69.15625 L 5.484375 -69.015625 L 2.890625 -71.90625 L 2.890625 -80.703125 L 3.890625 -88.9375 L 7.078125 -97.171875 L 13.28125 -100.625 L 22.09375 -100.921875 L 36.953125 -100.921875 L 43.03125 -99.328125 L 47.78125 -93.984375 L 49.375 -87.203125 L 49.09375 -79.6875 L 50.09375 -71.328125 L 49.953125 -62.796875 L 48.078125 -57.3125 L 44.46875 -50.8125 L 48.515625 -46.34375 L 49.953125 -37.25 L 49.671875 -29.734375 L 49.234375 -22.09375 L 49.234375 -14.296875 L 47.359375 -7.796875 L 44.03125 -2.171875 L 36.8125 0.578125 Z M 30.03125 1.015625 "/></g></g></g></g></g></g></svg>