<?xml version="1.0" encoding="UTF-8"?>
<svg xmlns="http://www.w3.org/2000/svg" xmlns:xlink="http://www.w3.org/1999/xlink" width="794" zoomAndPan="magnify" viewBox="0 0 595.5 842.249979" height="1123" preserveAspectRatio="xMidYMid meet" version="1.0" style="background: none;"><defs><clipPath id="c7793a9c4d"/><clipPath id="4ce0c6f5df"><path d="M 0.015625 0 L 594.984375 0 L 594.984375 841.5 L 0.015625 841.5 Z M 0.015625 0 " clip-rule="nonzero" data-index="1" style="visibility: hidden;"/></clipPath><clipPath id="859637d9fe"/><clipPath id="4be8509081"><rect x="0" width="595" y="0" height="842"/></clipPath></defs><g clip-path="url(#c7793a9c4d)"><path fill="#ffffff" d="M 0.015625 0 L 594.984375 0 L 594.984375 841.5 L 0.015625 841.5 Z M 0.015625 0 " fill-opacity="1" fill-rule="nonzero" data-index="3" style="visibility: hidden;"/><g transform="matrix(1, 0, 0, 1, -0.000000000000000002, 0)"><g clip-path="url(#4be8509081)"><g clip-path="url(#4ce0c6f5df)"/><g clip-path="url(#859637d9fe)"><path fill="#6443c4" d="M 531.824219 276.277344 C 520.304688 265.867188 500.6875 270.960938 490.550781 282.726562 C 480.417969 294.492188 477.28125 310.5625 474.511719 325.839844 C 471.902344 340.234375 469.289062 354.628906 466.679688 369.023438 C 465.160156 377.40625 463.628906 385.828125 460.800781 393.863281 C 451.042969 421.605469 427.226562 441.621094 404.441406 460.210938 C 400.488281 463.433594 396.535156 466.660156 392.582031 469.882812 C 388.34375 473.339844 382.246094 468.976562 384.171875 463.859375 C 389.792969 448.914062 394.585938 433.691406 396.5 417.882812 C 397.816406 407.007812 397.753906 395.972656 399.527344 385.160156 C 401.160156 375.1875 404.339844 365.539062 407.503906 355.9375 C 417.996094 324.121094 437.097656 280.882812 450.714844 257.78125 C 459.320312 243.179688 467.300781 227.550781 467.644531 210.605469 C 467.996094 193.652344 461.066406 176.105469 447.425781 166.03125 C 444.40625 163.800781 441.027344 161.921875 437.324219 161.261719 C 426.335938 159.296875 416.5 168.238281 410.066406 177.359375 C 386.265625 211.121094 382.355469 254.554688 379.222656 295.746094 C 376.621094 329.882812 374.023438 364.023438 371.421875 398.164062 C 371.058594 402.910156 364.398438 403.667969 362.992188 399.121094 C 354.757812 372.503906 347.976562 345.382812 348.429688 317.664062 C 348.824219 293.769531 354.632812 270.195312 363.203125 247.886719 C 368.027344 235.332031 373.765625 223.015625 376.488281 209.84375 C 379.6875 194.355469 378.589844 178.246094 375.601562 162.714844 C 372.90625 148.660156 367.21875 133.070312 352.222656 129.53125 C 343.773438 127.53125 335.003906 130.257812 328.382812 135.878906 C 315.972656 146.421875 312.769531 162.84375 312.695312 178.398438 C 312.628906 191.308594 314.457031 204.21875 313.582031 217.101562 C 312.226562 237.066406 304.476562 255.964844 299.859375 275.4375 C 286.878906 330.175781 298.835938 384.484375 299.71875 439.894531 C 299.792969 444.429688 293.273438 445.222656 292.289062 440.792969 C 289.921875 430.136719 287.058594 419.589844 283.71875 409.195312 C 281.105469 401.054688 278.191406 393.011719 275.8125 384.796875 C 264.878906 347.050781 265.519531 306.949219 268.726562 267.78125 C 272.164062 225.816406 278.441406 183.910156 276.101562 141.789062 C 275.777344 135.941406 274.296875 130.1875 271.566406 125.011719 C 269.796875 121.65625 267.308594 118.136719 263.75 116.394531 C 260.261719 114.683594 256.101562 114.84375 252.328125 115.195312 C 245.535156 115.820312 238.902344 117.773438 232.996094 121.199219 C 205.640625 137.070312 202.523438 169.625 203.003906 198.601562 C 203.558594 232.160156 207.351562 268.996094 213.558594 301.980469 C 207.058594 300.265625 200.023438 302.585938 194.585938 306.546875 C 189.152344 310.511719 185.027344 315.964844 180.984375 321.339844 C 177.453125 326.027344 173.816406 330.964844 172.863281 336.753906 C 172.003906 342.011719 173.464844 347.339844 174.914062 352.464844 C 183.675781 383.480469 192.652344 414.992188 209.875 442.238281 C 218.0625 455.195312 227.996094 466.984375 236.214844 479.921875 C 241.027344 487.5 246.007812 496.511719 249.386719 505.757812 C 250.484375 508.769531 246.457031 510.902344 244.582031 508.308594 C 234.714844 494.625 220.105469 483.964844 205.792969 474.511719 C 186.027344 461.460938 164.824219 448.363281 153.445312 427.585938 C 148.683594 418.886719 145.910156 409.261719 143.175781 399.726562 C 135.546875 373.136719 131.453125 340.808594 116.648438 317.4375 C 109.707031 306.488281 96.308594 299.988281 83.414062 301.320312 C 70.515625 302.648438 55.890625 315.097656 55.035156 328.039062 C 54.054688 342.953125 68.101562 353.871094 75.917969 366.621094 C 81.515625 375.75 84.019531 386.371094 87.207031 396.597656 C 102.140625 444.429688 134.214844 486.714844 176.253906 513.988281 C 193.714844 525.320312 213.042969 534.316406 227.683594 549.113281 C 234.902344 556.410156 240.808594 564.960938 248.332031 571.925781 C 256.167969 579.175781 266.503906 583.085938 277.175781 583.109375 C 412.136719 583.382812 443.671875 516.085938 452.191406 505.71875 C 455.914062 501.191406 459.566406 496.621094 462.820312 491.75 C 468.222656 483.667969 473.621094 475.582031 479.019531 467.5 C 486.027344 457.007812 493.101562 446.394531 497.488281 434.5625 C 500.8125 425.601562 502.519531 416.132812 504.300781 406.742188 C 508.777344 383.132812 513.929688 359.335938 524.644531 337.820312 C 529.628906 327.8125 535.835938 318.25 538.648438 307.425781 C 541.460938 296.609375 540.113281 283.777344 531.824219 276.277344 " fill-opacity="1" fill-rule="nonzero" data-index="5" style="visibility: hidden;"/></g></g></g></g></svg>